# xmcd
#
# Track frame offsets:
#	150
#	12624
#	25210
#	35729
#	48694
#	63178
#	73681
#	87358
#	100345
#	112428
#	126427
#	139512
#	152042
#	164323
#	177962
#	188136
#	200386
#	210463
#
# Disc length: 2969 seconds
#
# Revision: 0
# Processed by: cddbd v1.5.2PL0 Copyright (c) Steve Scherf et al.
# Submitted via: audiograbber 1.83.01
#
DISCID=0b0b9712
DTITLE=Various Artist - Simply America Disc 3
DYEAR=1900
DGENRE=Country and Bluegrass
TTITLE0=Hank Williams - Lovesick Blues
TTITLE1=Bob Wills and his Texas Playboys - Steel Guitar Rag
TTITLE2=June Carter Cash - Juke Box Blues
TTITLE3=Stanley Brothers &The Clinch Mountain Boys - Pretty Polly
TTITLE4=Jimmie Rogers - The Brakeman's Blues
TTITLE5=Patsy Cline - When a House is not a Home
TTITLE6=Flatt and Scruggs - Earl's Breakdown
TTITLE7=Merle Travis - Sixteen Tons
TTITLE8=Ernest Tubb - I Love you Because
TTITLE9=The Carter Family - Foggy Mountain Top
TTITLE10=The Sons of the Pioneers - Cigaretts, Whisky and wild Woman
TTITLE11=Roy Acuff and his Smoky mountain Boys - Wreck on the Highway
TTITLE12=Eddy Arnold - i'll Hold you in my Heart
TTITLE13=Kitty Wells - Death at the Bar
TTITLE14=Mac Wiseman and the Countryboys - A Broken Heart to Mend
TTITLE15=Hank Snow - Golden Rocket
TTITLE16=Jean Shepard - I didn't know the Gun was Loaded
TTITLE17=Ted Daffan and his Texans - Born to lose
EXTD=
EXTT0=
EXTT1=
EXTT2=
EXTT3=
EXTT4=
EXTT5=
EXTT6=
EXTT7=
EXTT8=
EXTT9=
EXTT10=
EXTT11=
EXTT12=
EXTT13=
EXTT14=
EXTT15=
EXTT16=
EXTT17=
PLAYORDER=
